<?xml version="1.0" encoding="utf-8"?>
<!-- Generator: Adobe Illustrator 18.1.1, SVG Export Plug-In . SVG Version: 6.00 Build 0)  -->
<svg version="1.1" id="Ebene_1" xmlns="http://www.w3.org/2000/svg" xmlns:xlink="http://www.w3.org/1999/xlink" x="0px" y="0px"
	 width="96px" height="29px" viewBox="-351 415 96 29" enable-background="new -351 415 96 29" xml:space="preserve">
<rect x="-293.63" y="415.39" fill="#45505F" width="6.535" height="4.879"/>
<polygon fill="#45505F" points="-269.584,427.911 -272.493,423.828 -281.101,423.828 -273.63,432.868 "/>
<polygon fill="#45505F" points="-263.177,432.868 -255.721,423.834 -264.191,423.834 -268.594,429.3 -266.033,432.895 
	-268.35,436.028 -263.232,442.908 -255,442.908 "/>
<path fill="#45505F" d="M-299.783,430.598c-0.308-5.364-2.934-7.086-10.807-7.086h-5.284c-4.859,0-8.201,1.208-8.717,7.102
	l-0.041,0.472l-0.031,3.466l0.022,0.494c0.307,6.781,4.121,8.171,9.753,8.171c0,0,2.778,0,4.155,0c1.378,0,7.041-0.345,10.295-1.268
	l-0.519-4.076c-4.683,1.023-8.591,1.142-9.672,1.142s-2.327,0-2.327,0c-2.685,0-5.17,0.114-5.17-2.732v-1.74h18.374v-0.014
	l-0.003-3.441L-299.783,430.598z M-306.05,431.083h-12.076v-0.518c0-2.962,1.214-3.357,6.038-3.357c4.198,0,6.038,0.317,6.038,3.357
	V431.083z"/>
<polygon fill="#45505F" points="-329.324,427.996 -329.324,423.828 -350.369,423.828 -350.369,427.997 -338.777,427.997 
	-351,438.725 -351,442.902 -328.772,442.902 -328.772,438.733 -341.744,438.725 "/>
<rect x="-293.63" y="423.828" fill="#45505F" width="6.535" height="19.074"/>
<polygon fill="#FD4F57" points="-281.821,442.902 -269.584,427.911 -266.033,432.895 -273.433,442.902 "/>
<polygon opacity="0.45" fill="#FD4F57" enable-background="new    " points="-273.63,432.868 -281.101,423.828 -272.493,423.828 
	-269.584,427.911 "/>
</svg>
